<svg width="40" height="40" viewBox="0 0 40 40" fill="none" xmlns="http://www.w3.org/2000/svg">
<path d="M20 0C12.234 0 5.91608 6.41719 5.91608 14.3046V25.6958C5.91608 33.5832 12.234 40 20 40C27.7655 40 34.0839 33.6027 34.0839 25.7395V14.3046C34.0839 6.41719 27.7655 0 20 0ZM31.4348 25.7395C31.4348 32.1422 26.3055 37.351 20 37.351C13.6949 37.351 8.56514 32.1223 8.56514 25.6954V14.3046C8.56514 7.87766 13.6949 2.64898 20 2.64898C26.3055 2.64898 31.4348 7.87766 31.4348 14.3046V25.7395Z" fill="#999999"/>
<path d="M20 10.9492C19.2684 10.9492 18.6755 11.5422 18.6755 12.2738V16.9095C18.6755 17.6411 19.2684 18.2341 20 18.2341C20.7316 18.2341 21.3245 17.6411 21.3245 16.9095V12.2738C21.3245 11.5422 20.7316 10.9492 20 10.9492Z" fill="#999999"/>
</svg>
